<?xml version="1.0" encoding="UTF-8"?>
<svg version="1.1" xmlns="http://www.w3.org/2000/svg" width="120" height="120">
<path d="M0 0 C39.6 0 79.2 0 120 0 C120 39.6 120 79.2 120 120 C80.4 120 40.8 120 0 120 C0 80.4 0 40.8 0 0 Z " fill="#94A17D" transform="translate(0,0)"/>
<path d="M0 0 C0.33 0 0.66 0 1 0 C1.89983733 12.48697343 1.89956093 24.50609815 1 37 C6.61 37 12.22 37 18 37 C18 31.39 18 25.78 18 20 C18.33 20 18.66 20 19 20 C19 32.54 19 45.08 19 58 C20.19341752 57.02667739 20.19341752 57.02667739 20.11352539 55.23413086 C20.10828857 54.48526611 20.10305176 53.73640137 20.09765625 52.96484375 C20.09443359 52.15595703 20.09121094 51.34707031 20.08789062 50.51367188 C20.07951172 49.66353516 20.07113281 48.81339844 20.0625 47.9375 C20.05798828 47.08349609 20.05347656 46.22949219 20.04882812 45.34960938 C20.03700373 43.23304337 20.01906769 41.11651315 20 39 C25.39346988 38.97535151 30.78690725 38.95716469 36.18041992 38.94506836 C38.01668875 38.94002769 39.85295354 38.93319523 41.68920898 38.92456055 C44.32276401 38.91248328 46.95626616 38.90676919 49.58984375 38.90234375 C50.41588608 38.89718246 51.24192841 38.89202118 52.09300232 38.88670349 C54.06236368 38.88650795 56.03161614 38.93795848 58 39 C58.33 39.33 58.66 39.66 59 40 C60.29056945 36.12829166 60.10598349 32.46808515 60.0625 28.4375 C60.05798828 27.65697266 60.05347656 26.87644531 60.04882812 26.07226562 C60.03660309 24.04814856 60.0186837 22.02406775 60 20 C60 13.33333333 60 6.66666667 60 0 C62.97922593 -0.02683987 65.95821295 -0.04676037 68.9375 -0.0625 C69.78763672 -0.07087891 70.63777344 -0.07925781 71.51367188 -0.08789062 C72.32255859 -0.09111328 73.13144531 -0.09433594 73.96484375 -0.09765625 C74.7137085 -0.10289307 75.46257324 -0.10812988 76.23413086 -0.11352539 C78 0 78 0 79 1 C79.09498807 3.43400141 79.12557109 5.8393911 79.11352539 8.27368164 C79.11364593 9.04695266 79.11376646 9.82022367 79.11389065 10.61692715 C79.11314154 13.13136565 79.1055134 15.64573093 79.09765625 18.16015625 C79.09618683 19.70796676 79.09516612 21.25577776 79.09460449 22.80358887 C79.08935167 28.5565668 79.07539059 34.30953411 79.0625 40.0625 C79.041875 52.911875 79.02125 65.76125 79 79 C40.06 79 1.12 79 -39 79 C-39 65.8 -39 52.6 -39 39 C-29.1 38.505 -29.1 38.505 -19 38 C-19 31.73 -19 25.46 -19 19 C-13.06 18.67 -7.12 18.34 -1 18 C-0.67 12.06 -0.34 6.12 0 0 Z " fill="#94A27D" transform="translate(41,41)"/>
<path d="M0 0 C0.33 0 0.66 0 1 0 C1.89983733 12.48697343 1.89956093 24.50609815 1 37 C6.61 37 12.22 37 18 37 C18 31.39 18 25.78 18 20 C18.33 20 18.66 20 19 20 C19 39.47 19 58.94 19 79 C-0.14 79 -19.28 79 -39 79 C-39 65.8 -39 52.6 -39 39 C-29.1 38.505 -29.1 38.505 -19 38 C-19 31.73 -19 25.46 -19 19 C-13.06 18.67 -7.12 18.34 -1 18 C-0.67 12.06 -0.34 6.12 0 0 Z " fill="#8B9876" transform="translate(41,41)"/>
<path d="M0 0 C25.74 0 51.48 0 78 0 C78 13.86 78 27.72 78 42 C71.73 41.67 65.46 41.34 59 41 C59.495 49.91 59.495 49.91 60 59 C65.61 59.33 71.22 59.66 77 60 C77 60.33 77 60.66 77 61 C71.06 61 65.12 61 59 61 C59 66.61 59 72.22 59 78 C64.94 78 70.88 78 77 78 C77 78.33 77 78.66 77 79 C71.06 79 65.12 79 59 79 C58.67 85.27 58.34 91.54 58 98 C57.67 98 57.34 98 57 98 C57 92.06 57 86.12 57 80 C44.46 80 31.92 80 19 80 C19 85.94 19 91.88 19 98 C25.27 98 31.54 98 38 98 C38 98.33 38 98.66 38 99 C32.06 99.33 26.12 99.66 20 100 C19.67 105.94 19.34 111.88 19 118 C18.67 118 18.34 118 18 118 C18 111.73 18 105.46 18 99 C12.39 99 6.78 99 1 99 C1 98.67 1 98.34 1 98 C6.61 98 12.22 98 18 98 C18 92.06 18 86.12 18 80 C12.06 80 6.12 80 0 80 C0 79.67 0 79.34 0 79 C5.94 79 11.88 79 18 79 C18 73.06 18 67.12 18 61 C18.33 61 18.66 61 19 61 C19 66.94 19 72.88 19 79 C24.94 79 30.88 79 37 79 C36.979375 76.07125 36.95875 73.1425 36.9375 70.125 C36.90431097 60.37713813 37.37244019 50.72717709 38 41 C31.73 41 25.46 41 19 41 C19 46.94 19 52.88 19 59 C18.67 59 18.34 59 18 59 C18 46.46 18 33.92 18 21 C18.33 21 18.66 21 19 21 C19 26.94 19 32.88 19 39 C25.27 39 31.54 39 38 39 C38 33.39 38 27.78 38 22 C38.33 22 38.66 22 39 22 C39 27.61 39 33.22 39 39 C44.94 39 50.88 39 57 39 C56.505 30.09 56.505 30.09 56 21 C50.39 20.67 44.78 20.34 39 20 C39 19.67 39 19.34 39 19 C44.94 19 50.88 19 57 19 C57 13.06 57 7.12 57 1 C51.06 1 45.12 1 39 1 C39 6.61 39 12.22 39 18 C38.67 18 38.34 18 38 18 C37.67 12.72 37.34 7.44 37 2 C31.06 1.67 25.12 1.34 19 1 C19 6.94 19 12.88 19 19 C18.67 19 18.34 19 18 19 C18 13.06 18 7.12 18 1 C12.06 1 6.12 1 0 1 C0 0.67 0 0.34 0 0 Z " fill="#9CAB84" transform="translate(42,0)"/>
<path d="M0 0 C12.54 0 25.08 0 38 0 C38 12.54 38 25.08 38 38 C25.46 38 12.92 38 0 38 C0 25.33333333 0 12.66666667 0 0 Z " fill="#889473" transform="translate(61,80)"/>
<path d="M0 0 C6.27 0 12.54 0 19 0 C19.10262068 12.72496471 18.71585836 25.29351408 18 38 C12.06 38 6.12 38 0 38 C0 32.06 0 26.12 0 20 C-0.66 20 -1.32 20 -2 20 C-2 25.61 -2 31.22 -2 37 C-7.61 37 -13.22 37 -19 37 C-19.02683987 34.02077407 -19.04676037 31.04178705 -19.0625 28.0625 C-19.07087891 27.21236328 -19.07925781 26.36222656 -19.08789062 25.48632812 C-19.09111328 24.67744141 -19.09433594 23.86855469 -19.09765625 23.03515625 C-19.10289307 22.2862915 -19.10812988 21.53742676 -19.11352539 20.76586914 C-19 19 -19 19 -18 18 C-16.65732587 17.91368126 -15.31025678 17.89293527 -13.96484375 17.90234375 C-12.87224243 17.90609009 -12.87224243 17.90609009 -11.75756836 17.90991211 C-10.8269458 17.91901611 -9.89632324 17.92812012 -8.9375 17.9375 C-4.5134375 17.9684375 -4.5134375 17.9684375 0 18 C0 12.06 0 6.12 0 0 Z " fill="#8C9876" transform="translate(61,41)"/>
<path d="M0 0 C2.949375 -0.020625 5.89875 -0.04125 8.9375 -0.0625 C9.86812256 -0.071604 10.79874512 -0.08070801 11.75756836 -0.09008789 C12.48596924 -0.09258545 13.21437012 -0.09508301 13.96484375 -0.09765625 C14.7137085 -0.10289307 15.46257324 -0.10812988 16.23413086 -0.11352539 C18 0 18 0 19 1 C19.08631874 2.34267413 19.10706473 3.68974322 19.09765625 5.03515625 C19.09515869 5.76355713 19.09266113 6.49195801 19.09008789 7.24243164 C19.08098389 8.1730542 19.07187988 9.10367676 19.0625 10.0625 C19.041875 13.011875 19.02125 15.96125 19 19 C12.73 19 6.46 19 0 19 C0 12.73 0 6.46 0 0 Z " fill="#2D3126" transform="translate(2,60)"/>
<path d="M0 0 C6.27 0 12.54 0 19 0 C19 5.94 19 11.88 19 18 C12.73 18 6.46 18 0 18 C0 12.06 0 6.12 0 0 Z " fill="#25281F" transform="translate(61,41)"/>
<path d="M0 0 C5.94 0 11.88 0 18 0 C18 6.27 18 12.54 18 19 C12.06 19 6.12 19 0 19 C0 12.73 0 6.46 0 0 Z " fill="#8B9876" transform="translate(2,1)"/>
<path d="M0 0 C5.94 0 11.88 0 18 0 C18 5.94 18 11.88 18 18 C12.06 18 6.12 18 0 18 C0 12.06 0 6.12 0 0 Z " fill="#798567" transform="translate(2,100)"/>
<path d="M0 0 C5.94 0 11.88 0 18 0 C18 5.94 18 11.88 18 18 C12.06 18 6.12 18 0 18 C0 12.06 0 6.12 0 0 Z " fill="#171913" transform="translate(101,100)"/>
<path d="M0 0 C5.94 0 11.88 0 18 0 C18 5.94 18 11.88 18 18 C12.06 18 6.12 18 0 18 C0 12.06 0 6.12 0 0 Z " fill="#171913" transform="translate(81,100)"/>
<path d="M0 0 C5.94 0 11.88 0 18 0 C18 5.94 18 11.88 18 18 C12.06 18 6.12 18 0 18 C0 12.06 0 6.12 0 0 Z " fill="#11130F" transform="translate(22,100)"/>
<path d="M0 0 C5.94 0 11.88 0 18 0 C18 5.94 18 11.88 18 18 C12.06 18 6.12 18 0 18 C0 12.06 0 6.12 0 0 Z " fill="#171913" transform="translate(61,100)"/>
<path d="M0 0 C5.94 0 11.88 0 18 0 C18 5.94 18 11.88 18 18 C12.06 18 6.12 18 0 18 C0 12.06 0 6.12 0 0 Z " fill="#171913" transform="translate(42,100)"/>
<path d="M0 0 C5.94 0 11.88 0 18 0 C18 5.94 18 11.88 18 18 C12.06 18 6.12 18 0 18 C0 12.06 0 6.12 0 0 Z " fill="#191B15" transform="translate(81,80)"/>
<path d="M0 0 C5.94 0 11.88 0 18 0 C18 5.94 18 11.88 18 18 C12.06 18 6.12 18 0 18 C0 12.06 0 6.12 0 0 Z " fill="#171913" transform="translate(22,80)"/>
<path d="M0 0 C5.94 0 11.88 0 18 0 C18 5.94 18 11.88 18 18 C12.06 18 6.12 18 0 18 C0 12.06 0 6.12 0 0 Z " fill="#191B15" transform="translate(2,80)"/>
<path d="M0 0 C5.94 0 11.88 0 18 0 C18 5.94 18 11.88 18 18 C12.06 18 6.12 18 0 18 C0 12.06 0 6.12 0 0 Z " fill="#1B1D16" transform="translate(42,41)"/>
<path d="M0 0 C5.94 0 11.88 0 18 0 C18 5.94 18 11.88 18 18 C12.06 18 6.12 18 0 18 C0 12.06 0 6.12 0 0 Z " fill="#8A9774" transform="translate(101,41)"/>
<path d="M0 0 C5.94 0 11.88 0 18 0 C18 5.94 18 11.88 18 18 C12.06 18 6.12 18 0 18 C0 12.06 0 6.12 0 0 Z " fill="#8A9674" transform="translate(22,41)"/>
<path d="M0 0 C5.94 0 11.88 0 18 0 C18 5.94 18 11.88 18 18 C12.06 18 6.12 18 0 18 C0 12.06 0 6.12 0 0 Z " fill="#8A9775" transform="translate(81,41)"/>
<path d="M0 0 C5.94 0 11.88 0 18 0 C18 5.94 18 11.88 18 18 C12.06 18 6.12 18 0 18 C0 12.06 0 6.12 0 0 Z " fill="#8B9875" transform="translate(2,41)"/>
<path d="M0 0 C5.94 0 11.88 0 18 0 C18 5.94 18 11.88 18 18 C12.06 18 6.12 18 0 18 C0 12.06 0 6.12 0 0 Z " fill="#181B14" transform="translate(42,21)"/>
<path d="M0 0 C5.94 0 11.88 0 18 0 C18 5.94 18 11.88 18 18 C12.06 18 6.12 18 0 18 C0 12.06 0 6.12 0 0 Z " fill="#151712" transform="translate(22,21)"/>
<path d="M0 0 C5.94 0 11.88 0 18 0 C18 5.94 18 11.88 18 18 C12.06 18 6.12 18 0 18 C0 12.06 0 6.12 0 0 Z " fill="#8A9674" transform="translate(101,21)"/>
<path d="M0 0 C5.94 0 11.88 0 18 0 C18 5.94 18 11.88 18 18 C12.06 18 6.12 18 0 18 C0 12.06 0 6.12 0 0 Z " fill="#98A681" transform="translate(101,1)"/>
<path d="M0 0 C5.94 0 11.88 0 18 0 C18 5.61 18 11.22 18 17 C12.06 17 6.12 17 0 17 C0 11.39 0 5.78 0 0 Z " fill="#889472" transform="translate(101,61)"/>
<path d="M0 0 C5.94 0 11.88 0 18 0 C18 5.61 18 11.22 18 17 C12.06 17 6.12 17 0 17 C0 11.39 0 5.78 0 0 Z " fill="#899574" transform="translate(81,61)"/>
<path d="M0 0 C0.66 0 1.32 0 2 0 C2 5.94 2 11.88 2 18 C7.94 18 13.88 18 20 18 C20 18.66 20 19.32 20 20 C20.66 20 21.32 20 22 20 C22 26.27 22 32.54 22 39 C27.94 39 33.88 39 40 39 C40 39.33 40 39.66 40 40 C20.86 40 1.72 40 -18 40 C-18 39.34 -18 38.68 -18 38 C-12.06 38 -6.12 38 0 38 C0 32.06 0 26.12 0 20 C-5.94 20 -11.88 20 -18 20 C-18 19.34 -18 18.68 -18 18 C-12.06 18 -6.12 18 0 18 C0 12.06 0 6.12 0 0 Z M2 20 C2 25.94 2 31.88 2 38 C7.94 38 13.88 38 20 38 C20 32.06 20 26.12 20 20 C14.06 20 8.12 20 2 20 Z " fill="#859170" transform="translate(20,80)"/>
<path d="M0 0 C0.33 0 0.66 0 1 0 C1 5.94 1 11.88 1 18 C7.27 18 13.54 18 20 18 C20 12.06 20 6.12 20 0 C20.33 0 20.66 0 21 0 C21 5.94 21 11.88 21 18 C26.61 18 32.22 18 38 18 C38 18.33 38 18.66 38 19 C26.38652207 19.82973664 14.83151661 20.15856333 3.18920898 20.13037109 C0.56813763 20.12501153 -2.05276191 20.13035634 -4.67382812 20.13671875 C-15.81471507 20.14062852 -26.88423426 19.74121989 -38 19 C-38 18.67 -38 18.34 -38 18 C-25.46 18 -12.92 18 0 18 C0 12.06 0 6.12 0 0 Z " fill="#93A17D" transform="translate(80,100)"/>
<path d="M0 0 C0.33 0 0.66 0 1 0 C1 5.94 1 11.88 1 18 C6.94 18 12.88 18 19 18 C19 18.33 19 18.66 19 19 C13.06 19 7.12 19 1 19 C1 24.94 1 30.88 1 37 C7.27 37 13.54 37 20 37 C20 37.33 20 37.66 20 38 C14.06 38.33 8.12 38.66 2 39 C1.67 44.94 1.34 50.88 1 57 C0.67 57 0.34 57 0 57 C0 50.73 0 44.46 0 38 C-5.61 38 -11.22 38 -17 38 C-17 37.67 -17 37.34 -17 37 C-11.39 37 -5.78 37 0 37 C0 31.06 0 25.12 0 19 C-5.94 19 -11.88 19 -18 19 C-18 18.67 -18 18.34 -18 18 C-12.06 18 -6.12 18 0 18 C0 12.06 0 6.12 0 0 Z " fill="#A3B38B" transform="translate(60,61)"/>
<path d="M0 0 C3.63 0 7.26 0 11 0 C11 3.63 11 7.26 11 11 C7.37 11 3.74 11 0 11 C0 7.37 0 3.74 0 0 Z " fill="#0C0D0A" transform="translate(65,103)"/>
<path d="M0 0 C3.63 0 7.26 0 11 0 C11 3.63 11 7.26 11 11 C7.37 11 3.74 11 0 11 C0 7.37 0 3.74 0 0 Z " fill="#879472" transform="translate(65,84)"/>
<path d="M0 0 C3.63 0 7.26 0 11 0 C11 3.63 11 7.26 11 11 C7.37 11 3.74 11 0 11 C0 7.37 0 3.74 0 0 Z " fill="#879472" transform="translate(45,84)"/>
<path d="M0 0 C3.63 0 7.26 0 11 0 C11 3.63 11 7.26 11 11 C7.37 11 3.74 11 0 11 C0 7.37 0 3.74 0 0 Z " fill="#0B0C09" transform="translate(6,84)"/>
<path d="M0 0 C3.63 0 7.26 0 11 0 C11 3.63 11 7.26 11 11 C7.37 11 3.74 11 0 11 C0 7.37 0 3.74 0 0 Z " fill="#889473" transform="translate(85,64)"/>
<path d="M0 0 C3.63 0 7.26 0 11 0 C11 3.63 11 7.26 11 11 C7.37 11 3.74 11 0 11 C0 7.37 0 3.74 0 0 Z " fill="#879472" transform="translate(65,64)"/>
<path d="M0 0 C3.63 0 7.26 0 11 0 C11 3.63 11 7.26 11 11 C7.37 11 3.74 11 0 11 C0 7.37 0 3.74 0 0 Z " fill="#879472" transform="translate(45,64)"/>
<path d="M0 0 C3.63 0 7.26 0 11 0 C11 3.63 11 7.26 11 11 C7.37 11 3.74 11 0 11 C0 7.37 0 3.74 0 0 Z " fill="#0A0C09" transform="translate(6,64)"/>
<path d="M0 0 C3.63 0 7.26 0 11 0 C11 3.63 11 7.26 11 11 C7.37 11 3.74 11 0 11 C0 7.37 0 3.74 0 0 Z " fill="#0B0C09" transform="translate(65,44)"/>
<path d="M0 0 C3.63 0 7.26 0 11 0 C11 3.63 11 7.26 11 11 C7.37 11 3.74 11 0 11 C0 7.37 0 3.74 0 0 Z " fill="#889473" transform="translate(85,5)"/>
<path d="M0 0 C3.63 0 7.26 0 11 0 C11 3.63 11 7.26 11 11 C7.37 11 3.74 11 0 11 C0 7.37 0 3.74 0 0 Z " fill="#879472" transform="translate(65,5)"/>
<path d="M0 0 C3.63 0 7.26 0 11 0 C11 3.63 11 7.26 11 11 C7.37 11 3.74 11 0 11 C0 7.37 0 3.74 0 0 Z " fill="#889473" transform="translate(6,5)"/>
<path d="M0 0 C5.94 0 11.88 0 18 0 C18 5.94 18 11.88 18 18 C12.06 18 6.12 18 0 18 C0 12.06 0 6.12 0 0 Z M2 2 C2 6.62 2 11.24 2 16 C6.95 16 11.9 16 17 16 C17 11.38 17 6.76 17 2 C12.05 2 7.1 2 2 2 Z " fill="#161812" transform="translate(2,100)"/>
<path d="M0 0 C5.94 0 11.88 0 18 0 C18 5.94 18 11.88 18 18 C12.06 18 6.12 18 0 18 C0 12.06 0 6.12 0 0 Z M2 2 C2 6.95 2 11.9 2 17 C6.62 17 11.24 17 16 17 C16 12.05 16 7.1 16 2 C11.38 2 6.76 2 2 2 Z " fill="#899674" transform="translate(101,1)"/>
<path d="M0 0 C5.94 0 11.88 0 18 0 C18 5.94 18 11.88 18 18 C12.06 18 6.12 18 0 18 C0 12.06 0 6.12 0 0 Z M2 2 C2 6.95 2 11.9 2 17 C6.62 17 11.24 17 16 17 C16 12.05 16 7.1 16 2 C11.38 2 6.76 2 2 2 Z " fill="#899674" transform="translate(42,1)"/>
<path d="M0 0 C3.3 0 6.6 0 10 0 C10 3.63 10 7.26 10 11 C6.7 11 3.4 11 0 11 C0 7.37 0 3.74 0 0 Z " fill="#879372" transform="translate(26,64)"/>
<path d="M0 0 C3.63 0 7.26 0 11 0 C11 3.3 11 6.6 11 10 C7.37 10 3.74 10 0 10 C0 6.7 0 3.4 0 0 Z " fill="#879372" transform="translate(104,45)"/>
<path d="M0 0 C3.63 0 7.26 0 11 0 C11 3.3 11 6.6 11 10 C7.37 10 3.74 10 0 10 C0 6.7 0 3.4 0 0 Z " fill="#879372" transform="translate(65,25)"/>
<path d="M0 0 C3.63 0 7.26 0 11 0 C11 3.3 11 6.6 11 10 C7.37 10 3.74 10 0 10 C0 6.7 0 3.4 0 0 Z " fill="#060605" transform="translate(45,25)"/>
<path d="M0 0 C3.3 0 6.6 0 10 0 C10 3.63 10 7.26 10 11 C6.7 11 3.4 11 0 11 C0 7.37 0 3.74 0 0 Z " fill="#879372" transform="translate(26,5)"/>
<path d="M0 0 C4.95 0 9.9 0 15 0 C15 4.95 15 9.9 15 15 C10.05 15 5.1 15 0 15 C0 10.05 0 5.1 0 0 Z M2 2 C2 5.63 2 9.26 2 13 C5.63 13 9.26 13 13 13 C13 9.37 13 5.74 13 2 C9.37 2 5.74 2 2 2 Z " fill="#9AA982" transform="translate(63,82)"/>
<path d="M0 0 C4.95 0 9.9 0 15 0 C15 4.95 15 9.9 15 15 C10.05 15 5.1 15 0 15 C0 10.05 0 5.1 0 0 Z M2 2 C2 5.63 2 9.26 2 13 C5.63 13 9.26 13 13 13 C13 9.37 13 5.74 13 2 C9.37 2 5.74 2 2 2 Z " fill="#9AA983" transform="translate(63,62)"/>
<path d="M0 0 C4.95 0 9.9 0 15 0 C15 4.95 15 9.9 15 15 C10.05 15 5.1 15 0 15 C0 10.05 0 5.1 0 0 Z M2 2 C2 5.63 2 9.26 2 13 C5.63 13 9.26 13 13 13 C13 9.37 13 5.74 13 2 C9.37 2 5.74 2 2 2 Z " fill="#9AA882" transform="translate(63,3)"/>
<path d="M0 0 C10.83984375 -0.09765625 10.83984375 -0.09765625 14 0 C15 1 15 1 15.09765625 4.16015625 C15.04882812 9.58007812 15.04882812 9.58007812 15 15 C10.05 15 5.1 15 0 15 C0 10.05 0 5.1 0 0 Z M2 2 C2 5.63 2 9.26 2 13 C5.63 13 9.26 13 13 13 C13 9.37 13 5.74 13 2 C9.37 2 5.74 2 2 2 Z " fill="#818E6E" transform="translate(4,62)"/>
<path d="M0 0 C3.61328125 0.03255208 7.2265625 0.06510417 10.83984375 0.09765625 C10.83984375 5.04765625 10.83984375 9.99765625 10.83984375 15.09765625 C5.88984375 15.09765625 0.93984375 15.09765625 -4.16015625 15.09765625 C-4.2578125 4.2578125 -4.2578125 4.2578125 -4.16015625 1.09765625 C-3.16015625 0.09765625 -3.16015625 0.09765625 0 0 Z M-2.16015625 2.09765625 C-2.16015625 5.72765625 -2.16015625 9.35765625 -2.16015625 13.09765625 C1.46984375 13.09765625 5.09984375 13.09765625 8.83984375 13.09765625 C8.83984375 9.46765625 8.83984375 5.83765625 8.83984375 2.09765625 C5.20984375 2.09765625 1.57984375 2.09765625 -2.16015625 2.09765625 Z " fill="#9AA882" transform="translate(47.16015625,61.90234375)"/>
<path d="M0 0 C4.95 0 9.9 0 15 0 C15.09765625 10.83984375 15.09765625 10.83984375 15 14 C14 15 14 15 10.83984375 15.09765625 C7.2265625 15.06510417 3.61328125 15.03255208 0 15 C0 10.05 0 5.1 0 0 Z M2 2 C2 5.63 2 9.26 2 13 C5.63 13 9.26 13 13 13 C13 9.37 13 5.74 13 2 C9.37 2 5.74 2 2 2 Z " fill="#99A781" transform="translate(4,3)"/>
<path d="M0 0 C3.3 0 6.6 0 10 0 C10 3.3 10 6.6 10 10 C6.7 10 3.4 10 0 10 C0 6.7 0 3.4 0 0 Z " fill="#000000" transform="translate(105,104)"/>
<path d="M0 0 C3.3 0 6.6 0 10 0 C10 3.3 10 6.6 10 10 C6.7 10 3.4 10 0 10 C0 6.7 0 3.4 0 0 Z " fill="#000000" transform="translate(85,104)"/>
<path d="M0 0 C3.3 0 6.6 0 10 0 C10 3.3 10 6.6 10 10 C6.7 10 3.4 10 0 10 C0 6.7 0 3.4 0 0 Z " fill="#000000" transform="translate(46,104)"/>
<path d="M0 0 C3.3 0 6.6 0 10 0 C10 3.3 10 6.6 10 10 C6.7 10 3.4 10 0 10 C0 6.7 0 3.4 0 0 Z " fill="#000000" transform="translate(26,104)"/>
<path d="M0 0 C3.3 0 6.6 0 10 0 C10 3.3 10 6.6 10 10 C6.7 10 3.4 10 0 10 C0 6.7 0 3.4 0 0 Z " fill="#010201" transform="translate(6,104)"/>
<path d="M0 0 C3.3 0 6.6 0 10 0 C10 3.3 10 6.6 10 10 C6.7 10 3.4 10 0 10 C0 6.7 0 3.4 0 0 Z " fill="#869271" transform="translate(105,84)"/>
<path d="M0 0 C3.3 0 6.6 0 10 0 C10 3.3 10 6.6 10 10 C6.7 10 3.4 10 0 10 C0 6.7 0 3.4 0 0 Z " fill="#000000" transform="translate(85,84)"/>
<path d="M0 0 C3.3 0 6.6 0 10 0 C10 3.3 10 6.6 10 10 C6.7 10 3.4 10 0 10 C0 6.7 0 3.4 0 0 Z " fill="#000000" transform="translate(26,84)"/>
<path d="M0 0 C4.62 0 9.24 0 14 0 C14 4.95 14 9.9 14 15 C9.38 15 4.76 15 0 15 C0 10.05 0 5.1 0 0 Z M2 2 C2 5.63 2 9.26 2 13 C5.3 13 8.6 13 12 13 C12 9.37 12 5.74 12 2 C8.7 2 5.4 2 2 2 Z " fill="#9AA982" transform="translate(24,62)"/>
<path d="M0 0 C3.3 0 6.6 0 10 0 C10 3.3 10 6.6 10 10 C6.7 10 3.4 10 0 10 C0 6.7 0 3.4 0 0 Z " fill="#869271" transform="translate(85,45)"/>
<path d="M0 0 C3.3 0 6.6 0 10 0 C10 3.3 10 6.6 10 10 C6.7 10 3.4 10 0 10 C0 6.7 0 3.4 0 0 Z " fill="#000000" transform="translate(46,45)"/>
<path d="M0 0 C3.3 0 6.6 0 10 0 C10 3.3 10 6.6 10 10 C6.7 10 3.4 10 0 10 C0 6.7 0 3.4 0 0 Z " fill="#869271" transform="translate(26,45)"/>
<path d="M0 0 C3.3 0 6.6 0 10 0 C10 3.3 10 6.6 10 10 C6.7 10 3.4 10 0 10 C0 6.7 0 3.4 0 0 Z " fill="#869271" transform="translate(6,45)"/>
<path d="M0 0 C3.3 0 6.6 0 10 0 C10 3.3 10 6.6 10 10 C6.7 10 3.4 10 0 10 C0 6.7 0 3.4 0 0 Z " fill="#869371" transform="translate(105,25)"/>
<path d="M0 0 C3.3 0 6.6 0 10 0 C10 3.3 10 6.6 10 10 C6.7 10 3.4 10 0 10 C0 6.7 0 3.4 0 0 Z " fill="#869271" transform="translate(85,25)"/>
<path d="M0 0 C3.3 0 6.6 0 10 0 C10 3.3 10 6.6 10 10 C6.7 10 3.4 10 0 10 C0 6.7 0 3.4 0 0 Z " fill="#000000" transform="translate(26,25)"/>
<path d="M0 0 C3.3 0 6.6 0 10 0 C10 3.3 10 6.6 10 10 C6.7 10 3.4 10 0 10 C0 6.7 0 3.4 0 0 Z " fill="#869272" transform="translate(6,25)"/>
<path d="M0 0 C4.62 0 9.24 0 14 0 C14 4.95 14 9.9 14 15 C9.38 15 4.76 15 0 15 C0 10.05 0 5.1 0 0 Z M2 2 C2 5.63 2 9.26 2 13 C5.3 13 8.6 13 12 13 C12 9.37 12 5.74 12 2 C8.7 2 5.4 2 2 2 Z " fill="#9AA882" transform="translate(24,3)"/>
<path d="M0 0 C3.3 0 6.6 0 10 0 C10 3.3 10 6.6 10 10 C6.7 10 3.4 10 0 10 C0 6.7 0 3.4 0 0 Z " fill="#869272" transform="translate(105,5)"/>
<path d="M0 0 C3.3 0 6.6 0 10 0 C10 3.3 10 6.6 10 10 C6.7 10 3.4 10 0 10 C0 6.7 0 3.4 0 0 Z " fill="#869271" transform="translate(46,5)"/>
<path d="M0 0 C4.62 0 9.24 0 14 0 C14 4.62 14 9.24 14 14 C9.38 14 4.76 14 0 14 C0 9.38 0 4.76 0 0 Z M2 2 C2 5.3 2 8.6 2 12 C5.3 12 8.6 12 12 12 C12 8.7 12 5.4 12 2 C8.7 2 5.4 2 2 2 Z " fill="#859271" transform="translate(103,102)"/>
<path d="M0 0 C4.62 0 9.24 0 14 0 C14 4.62 14 9.24 14 14 C9.38 14 4.76 14 0 14 C0 9.38 0 4.76 0 0 Z M2 2 C2 5.3 2 8.6 2 12 C5.3 12 8.6 12 12 12 C12 8.7 12 5.4 12 2 C8.7 2 5.4 2 2 2 Z " fill="#859271" transform="translate(83,102)"/>
<path d="M0 0 C4.62 0 9.24 0 14 0 C14 4.62 14 9.24 14 14 C9.38 14 4.76 14 0 14 C0 9.38 0 4.76 0 0 Z M2 2 C2 5.3 2 8.6 2 12 C5.3 12 8.6 12 12 12 C12 8.7 12 5.4 12 2 C8.7 2 5.4 2 2 2 Z " fill="#869371" transform="translate(24,102)"/>
<path d="M0 0 C4.62 0 9.24 0 14 0 C14 4.62 14 9.24 14 14 C9.38 14 4.76 14 0 14 C0 9.38 0 4.76 0 0 Z M2 2 C2 5.3 2 8.6 2 12 C5.3 12 8.6 12 12 12 C12 8.7 12 5.4 12 2 C8.7 2 5.4 2 2 2 Z " fill="#869372" transform="translate(44,102)"/>
<path d="M0 0 C4.62 0 9.24 0 14 0 C14 4.62 14 9.24 14 14 C9.38 14 4.76 14 0 14 C0 9.38 0 4.76 0 0 Z M2 2 C2 5.3 2 8.6 2 12 C5.3 12 8.6 12 12 12 C12 8.7 12 5.4 12 2 C8.7 2 5.4 2 2 2 Z " fill="#879473" transform="translate(24,82)"/>
<path d="M0 0 C4.62 0 9.24 0 14 0 C14 4.62 14 9.24 14 14 C9.38 14 4.76 14 0 14 C0 9.38 0 4.76 0 0 Z M2 2 C2 5.3 2 8.6 2 12 C5.3 12 8.6 12 12 12 C12 8.7 12 5.4 12 2 C8.7 2 5.4 2 2 2 Z " fill="#9AA982" transform="translate(103,82)"/>
<path d="M0 0 C4.62 0 9.24 0 14 0 C14 4.62 14 9.24 14 14 C9.38 14 4.76 14 0 14 C0 9.38 0 4.76 0 0 Z M2 2 C2 5.3 2 8.6 2 12 C5.3 12 8.6 12 12 12 C12 8.7 12 5.4 12 2 C8.7 2 5.4 2 2 2 Z " fill="#879472" transform="translate(83,82)"/>
<path d="M0 0 C4.62 0 9.24 0 14 0 C14 4.62 14 9.24 14 14 C9.38 14 4.76 14 0 14 C0 9.38 0 4.76 0 0 Z M2 2 C2 5.3 2 8.6 2 12 C5.3 12 8.6 12 12 12 C12 8.7 12 5.4 12 2 C8.7 2 5.4 2 2 2 Z " fill="#849070" transform="translate(44,43)"/>
<path d="M0 0 C4.62 0 9.24 0 14 0 C14 4.62 14 9.24 14 14 C9.38 14 4.76 14 0 14 C0 9.38 0 4.76 0 0 Z M2 2 C2 5.3 2 8.6 2 12 C5.3 12 8.6 12 12 12 C12 8.7 12 5.4 12 2 C8.7 2 5.4 2 2 2 Z " fill="#9AA882" transform="translate(24,43)"/>
<path d="M0 0 C4.62 0 9.24 0 14 0 C14 4.62 14 9.24 14 14 C9.38 14 4.76 14 0 14 C0 9.38 0 4.76 0 0 Z M2 2 C2 5.3 2 8.6 2 12 C5.3 12 8.6 12 12 12 C12 8.7 12 5.4 12 2 C8.7 2 5.4 2 2 2 Z " fill="#99A781" transform="translate(4,43)"/>
<path d="M0 0 C4.62 0 9.24 0 14 0 C14 4.62 14 9.24 14 14 C9.38 14 4.76 14 0 14 C0 9.38 0 4.76 0 0 Z M2 2 C2 5.3 2 8.6 2 12 C5.3 12 8.6 12 12 12 C12 8.7 12 5.4 12 2 C8.7 2 5.4 2 2 2 Z " fill="#99A882" transform="translate(83,43)"/>
<path d="M0 0 C4.62 0 9.24 0 14 0 C14 4.62 14 9.24 14 14 C9.38 14 4.76 14 0 14 C0 9.38 0 4.76 0 0 Z M2 2 C2 5.3 2 8.6 2 12 C5.3 12 8.6 12 12 12 C12 8.7 12 5.4 12 2 C8.7 2 5.4 2 2 2 Z " fill="#99A882" transform="translate(83,23)"/>
<path d="M0 0 C4.62 0 9.24 0 14 0 C14 4.62 14 9.24 14 14 C9.38 14 4.76 14 0 14 C0 9.38 0 4.76 0 0 Z M2 2 C2 5.3 2 8.6 2 12 C5.3 12 8.6 12 12 12 C12 8.7 12 5.4 12 2 C8.7 2 5.4 2 2 2 Z " fill="#99A781" transform="translate(4,23)"/>
<path d="M0 0 C4.62 0 9.24 0 14 0 C14 4.62 14 9.24 14 14 C9.38 14 4.76 14 0 14 C0 9.38 0 4.76 0 0 Z M2 2 C2 5.3 2 8.6 2 12 C5.3 12 8.6 12 12 12 C12 8.7 12 5.4 12 2 C8.7 2 5.4 2 2 2 Z " fill="#99A882" transform="translate(103,23)"/>
<path d="M0 0 C4.62 0 9.24 0 14 0 C14 4.62 14 9.24 14 14 C9.38 14 4.76 14 0 14 C0 9.38 0 4.76 0 0 Z M2 2 C2 5.3 2 8.6 2 12 C5.3 12 8.6 12 12 12 C12 8.7 12 5.4 12 2 C8.7 2 5.4 2 2 2 Z " fill="#849170" transform="translate(24,23)"/>
<path d="M0 0 C4.95 0 9.9 0 15 0 C15 4.62 15 9.24 15 14 C10.05 14 5.1 14 0 14 C0 9.38 0 4.76 0 0 Z M2 1 C2 4.63 2 8.26 2 12 C5.63 12 9.26 12 13 12 C13 8.37 13 4.74 13 1 C9.37 1 5.74 1 2 1 Z " fill="#8E9B78" transform="translate(63,102)"/>
<path d="M0 0 C4.95 0 9.9 0 15 0 C15 4.62 15 9.24 15 14 C10.05 14 5.1 14 0 14 C0 9.38 0 4.76 0 0 Z M2 2 C2 5.63 2 9.26 2 13 C5.63 13 9.26 13 13 13 C13 9.37 13 5.74 13 2 C9.37 2 5.74 2 2 2 Z " fill="#8A9775" transform="translate(4,82)"/>
<path d="M0 0 C4.62 0 9.24 0 14 0 C14 4.95 14 9.9 14 15 C9.38 15 4.76 15 0 15 C0 10.05 0 5.1 0 0 Z M1 2 C1 5.63 1 9.26 1 13 C4.63 13 8.26 13 12 13 C12 9.37 12 5.74 12 2 C8.37 2 4.74 2 1 2 Z " fill="#9BA983" transform="translate(103,62)"/>
<path d="M0 0 C4.95 0 9.9 0 15 0 C15 4.62 15 9.24 15 14 C10.05 14 5.1 14 0 14 C0 9.38 0 4.76 0 0 Z M2 1 C2 4.63 2 8.26 2 12 C5.63 12 9.26 12 13 12 C13 8.37 13 4.74 13 1 C9.37 1 5.74 1 2 1 Z " fill="#8D9A77" transform="translate(63,43)"/>
<path d="M0 0 C4.62 0 9.24 0 14 0 C14 4.62 14 9.24 14 14 C9.38 14 4.76 14 0 14 C0 9.38 0 4.76 0 0 Z M1 2 C1 5.3 1 8.6 1 12 C4.63 12 8.26 12 12 12 C12 8.7 12 5.4 12 2 C8.37 2 4.74 2 1 2 Z " fill="#9AA982" transform="translate(103,43)"/>
<path d="M0 0 C4.62 0 9.24 0 14 0 C14 4.62 14 9.24 14 14 C9.38 14 4.76 14 0 14 C0 9.38 0 4.76 0 0 Z M2 2 C2 5.3 2 8.6 2 12 C5.63 12 9.26 12 13 12 C13 8.7 13 5.4 13 2 C9.37 2 5.74 2 2 2 Z " fill="#9BAA83" transform="translate(63,23)"/>
<path d="M0 0 C4.62 0 9.24 0 14 0 C14 4.62 14 9.24 14 14 C9.38 14 4.76 14 0 14 C0 9.38 0 4.76 0 0 Z M1 2 C1 5.3 1 8.6 1 12 C4.63 12 8.26 12 12 12 C12 8.7 12 5.4 12 2 C8.37 2 4.74 2 1 2 Z " fill="#8C9A77" transform="translate(44,23)"/>
<path d="M0 0 C4.62 0 9.24 0 14 0 C14 4.62 14 9.24 14 14 C9.38 14 4.76 14 0 14 C0 9.38 0 4.76 0 0 Z M1 2 C1 5.63 1 9.26 1 13 C4.63 13 8.26 13 12 13 C12 9.37 12 5.74 12 2 C8.37 2 4.74 2 1 2 Z " fill="#9DAC85" transform="translate(44,82)"/>
<path d="M0 0 C4.62 0 9.24 0 14 0 C14 4.62 14 9.24 14 14 C9.38 14 4.76 14 0 14 C0 9.38 0 4.76 0 0 Z M2 1 C2 4.63 2 8.26 2 12 C5.63 12 9.26 12 13 12 C13 8.37 13 4.74 13 1 C9.37 1 5.74 1 2 1 Z " fill="#9CAB84" transform="translate(83,63)"/>
<path d="M0 0 C4.62 0 9.24 0 14 0 C14 4.62 14 9.24 14 14 C9.38 14 4.76 14 0 14 C0 9.38 0 4.76 0 0 Z M2 2 C2 5.63 2 9.26 2 13 C5.63 13 9.26 13 13 13 C13 9.37 13 5.74 13 2 C9.37 2 5.74 2 2 2 Z " fill="#9CAA84" transform="translate(83,3)"/>
<path d="M0 0 C0 0.33 0 0.66 0 1 C-5.94 1.33 -11.88 1.66 -18 2 C-18.33 7.94 -18.66 13.88 -19 20 C-19.33 20 -19.66 20 -20 20 C-20 13.73 -20 7.46 -20 1 C-25.61 1 -31.22 1 -37 1 C-37 0.67 -37 0.34 -37 0 C-24.55968889 -1.04743552 -12.45120028 -0.83694728 0 0 Z " fill="#ABBC91" transform="translate(80,98)"/>
<path d="M0 0 C5.61 0 11.22 0 17 0 C16.67 5.28 16.34 10.56 16 16 C15.67 16 15.34 16 15 16 C15 11.38 15 6.76 15 2 C10.05 2 5.1 2 0 2 C0 1.34 0 0.68 0 0 Z " fill="#181B15" transform="translate(23,100)"/>
<path d="M0 0 C0.33 0 0.66 0 1 0 C1 5.61 1 11.22 1 17 C6.94 17 12.88 17 19 17 C19 17.33 19 17.66 19 18 C12.4 18.33 5.8 18.66 -1 19 C-0.67 12.73 -0.34 6.46 0 0 Z " fill="#9DAC85" transform="translate(21,42)"/>
<path d="M0 0 C0.33 0 0.66 0 1 0 C1.33 5.61 1.66 11.22 2 17 C7.61 17.33 13.22 17.66 19 18 C19 18.33 19 18.66 19 19 C12.4 19 5.8 19 -1 19 C-0.67 12.73 -0.34 6.46 0 0 Z " fill="#96A47F" transform="translate(41,81)"/>
</svg>
